<?xml version="1.0" encoding="UTF-8" standalone="no"?>
<svg
   xmlns:dc="http://purl.org/dc/elements/1.1/"
   xmlns:cc="http://creativecommons.org/ns#"
   xmlns:rdf="http://www.w3.org/1999/02/22-rdf-syntax-ns#"
   xmlns:svg="http://www.w3.org/2000/svg"
   xmlns="http://www.w3.org/2000/svg"
   xmlns:sodipodi="http://sodipodi.sourceforge.net/DTD/sodipodi-0.dtd"
   xmlns:inkscape="http://www.inkscape.org/namespaces/inkscape"
   width="155mm"
   height="89mm"
   viewBox="0 0 155 89"
   version="1.1"
   id="svg1730"
   inkscape:version="1.0.1 (c497b03c, 2020-09-10)"
   sodipodi:docname="rocks.svg">
  <defs
     id="defs1724" />
  <sodipodi:namedview
     id="base"
     pagecolor="#ffffff"
     bordercolor="#666666"
     borderopacity="0.32941176"
     inkscape:pageopacity="0.0"
     inkscape:pageshadow="2"
     inkscape:zoom="0.52169945"
     inkscape:cx="351.11742"
     inkscape:cy="388.36268"
     inkscape:document-units="mm"
     inkscape:current-layer="layer1"
     inkscape:document-rotation="0"
     showgrid="false"
     inkscape:showpageshadow="false"
     inkscape:window-width="1252"
     inkscape:window-height="943"
     inkscape:window-x="428"
     inkscape:window-y="23"
     inkscape:window-maximized="0" />
  <metadata
     id="metadata1727">
    <rdf:RDF>
      <cc:Work
         rdf:about="">
        <dc:format>image/svg+xml</dc:format>
        <dc:type
           rdf:resource="http://purl.org/dc/dcmitype/StillImage" />
        <dc:title />
      </cc:Work>
    </rdf:RDF>
  </metadata>
  <g
     inkscape:label="Layer 1"
     inkscape:groupmode="layer"
     id="layer1">
    <path
       style="fill:#efe9dd;fill-opacity:1;stroke:none;stroke-width:0.296935px;stroke-linecap:butt;stroke-linejoin:miter;stroke-opacity:1"
       d="m 40.639754,40.547897 c 14.899162,-3.381411 54.066996,-7.956257 80.793316,0 26.72631,7.956255 34.70735,9.945307 18.73914,20.686256 C 124.204,71.975103 100.75764,75.157615 65.215683,74.361987 29.673672,73.566358 13.499643,68.853163 8.3838432,64.018846 -2.9825246,53.277897 25.740595,43.929307 40.639754,40.547897 Z"
       id="path1057"
       sodipodi:nodetypes="zzzzsz" />
    <path
       style="fill:#999999;stroke:none;stroke-width:0.422483px;stroke-linecap:butt;stroke-linejoin:miter;stroke-opacity:1"
       d="m 77.923442,33.124808 c -1.243479,1.429983 -4.476499,6.839078 -3.233026,10.818176 1.243478,3.979112 5.852369,7.175175 9.823422,6.963455 0,0 14.921649,-1.243473 15.543382,-4.352156 0.62173,-3.108683 -4.103462,-6.963442 -7.833869,-8.206903 -1.655736,-0.551916 -4.725182,-6.093013 -7.087778,-6.714737 -2.362596,-0.621737 -5.968671,0.06207 -7.212131,1.492165 z"
       id="path1085"
       sodipodi:nodetypes="zsssssz" />
    <path
       style="fill:#44a4cd;fill-opacity:1;stroke:none;stroke-width:0.422483px;stroke-linecap:butt;stroke-linejoin:miter;stroke-opacity:1"
       d="m 83.29898,59.454254 c 2.486939,3.606055 16.289477,1.740858 17.90599,-0.497384 1.61651,-2.238254 -2.113913,-6.963442 -5.346944,-6.839103 -3.233015,0.124392 -11.315586,-0.248679 -12.683399,2.735639 -1.367812,2.984344 0.124391,4.600848 0.124391,4.600848 z"
       id="path1120" />
    <path
       id="path1120-8"
       style="fill:#000000;fill-opacity:0.282258;stroke:none;stroke-width:0.422483px;stroke-linecap:butt;stroke-linejoin:miter;stroke-opacity:1"
       d="m 97.592387,60.591319 c -1.049064,-0.131735 -2.172845,-0.284924 -3.495384,-0.555327 -1.567932,-0.320593 -3.300845,-0.755182 -5.134959,-1.345834 -0.917066,-0.295319 -1.649775,-0.616257 -2.228763,-0.951411 -0.578997,-0.335164 -1.004784,-0.685272 -1.307883,-1.038879 -0.30309,-0.353607 -0.483285,-0.710457 -0.572658,-1.061165 -0.08941,-0.350696 -0.08771,-0.695133 -0.02555,-1.021537 0.06216,-0.326417 0.185105,-0.635185 0.336659,-0.915933 0.122092,-0.226214 0.268073,-0.417487 0.411756,-0.601532 -1.135315,0.392584 -2.028633,0.941359 -2.401218,1.75428 -1.367813,2.984343 0.124646,4.600273 0.124646,4.600273 1.807271,2.620546 9.553911,2.338713 14.293426,1.137065 z" />
    <path
       id="path1085-1"
       style="fill:#000000;fill-opacity:0.282258;stroke:none;stroke-width:0.422483px;stroke-linecap:butt;stroke-linejoin:miter;stroke-opacity:1"
       d="m 100.05339,45.78642 c -0.0299,0.0063 -0.0511,0.0038 -0.0817,0.01022 -0.5693,0.132053 -1.257086,0.396313 -2.010932,0.707175 -0.753846,0.310863 -1.573478,0.669079 -2.406989,0.987719 -0.833512,0.318639 -1.680429,0.597932 -2.488688,0.753356 -0.404129,0.07777 -0.823681,0.11494 -1.256716,0.114685 -0.433025,-2.3e-4 -0.880015,-0.03805 -1.337583,-0.108938 -0.915117,-0.141785 -1.874647,-0.417105 -2.861652,-0.797927 -0.987006,-0.380822 -2.001119,-0.866853 -3.025044,-1.428361 -1.023915,-0.561495 -2.057756,-1.199106 -3.08361,-1.883012 -0.512947,-0.341947 -0.953484,-0.770164 -1.331812,-1.258377 -0.378347,-0.488215 -0.694153,-1.035994 -0.958016,-1.61648 -0.263872,-0.580498 -0.475724,-1.194126 -0.645275,-1.812873 -0.169559,-0.618761 -0.29658,-1.242874 -0.391952,-1.845888 -0.190744,-1.206015 -0.253361,-2.32649 -0.268168,-3.145515 -0.01485,-0.819012 0.01817,-1.336753 0.01817,-1.336753 -1.243469,1.429983 -4.477273,6.839575 -3.233799,10.818674 1.243457,3.979112 5.85248,7.174421 9.823524,6.962701 0,0 14.921812,-1.243217 15.543545,-4.351901 0.05,-0.250007 0.0128,-0.510295 -0.004,-0.768234 z" />
    <g
       id="g1238"
       transform="matrix(1.5967818,0,0,1.5967818,-50.806583,-243.34462)">
      <path
         style="fill:#b3b3b3;fill-opacity:1;stroke:none;stroke-width:0.264583px;stroke-linecap:butt;stroke-linejoin:miter;stroke-opacity:1"
         d="m 70.170185,191.71945 c 4.983906,-0.93448 12.771259,-5.60689 11.525283,-8.09884 -1.245977,-2.49196 -6.879015,-13.05722 -11.836776,-12.45977 -5.901223,0.71115 -12.360629,6.15015 -14.523162,9.9775 -1.737152,3.0745 -0.609816,8.738 -0.194934,8.63428 4.049424,1.24598 10.045686,2.88132 15.029589,1.94683 z"
         id="path1059"
         sodipodi:nodetypes="sssscs" />
      <path
         id="path1059-0"
         style="fill:#000000;fill-opacity:0.282258;stroke:none;stroke-width:0.264583px;stroke-linecap:butt;stroke-linejoin:miter;stroke-opacity:1"
         d="m 80.495638,186.43947 c -1.269373,0.52991 -6.622026,2.76211 -7.526671,3.17964 -0.126545,0.0584 -0.306771,0.0399 -0.530201,-0.0362 -0.22343,-0.076 -0.490199,-0.20962 -0.790133,-0.3824 -0.599869,-0.34556 -1.332032,-0.84723 -2.115633,-1.3534 -0.783603,-0.50618 -1.618305,-1.0168 -2.422591,-1.38183 -0.402145,-0.18252 -0.796829,-0.32897 -1.173572,-0.41962 -0.376743,-0.0906 -0.73564,-0.12575 -1.066602,-0.0868 -0.330962,0.0389 -0.637577,0.0242 -0.923975,-0.0351 -0.286398,-0.0593 -0.552487,-0.16341 -0.802534,-0.30334 -0.250047,-0.13993 -0.483992,-0.31542 -0.705901,-0.51831 -0.221908,-0.2029 -0.432085,-0.43288 -0.634068,-0.6811 -0.403969,-0.49644 -0.776253,-1.06574 -1.149803,-1.63762 -0.373549,-0.57189 -0.748199,-1.14644 -1.157033,-1.65262 -0.20442,-0.25308 -0.344379,-0.54766 -0.430467,-0.87178 -0.08609,-0.32411 -0.118438,-0.67782 -0.107487,-1.04955 0.01095,-0.37172 0.06524,-0.76112 0.151929,-1.15703 0.0867,-0.39591 0.206121,-0.79809 0.347266,-1.19476 0.09661,-0.2715 0.236654,-0.49755 0.350366,-0.76016 -1.978633,1.66537 -3.592237,3.48202 -4.473112,5.04104 -1.737151,3.0745 -0.6097,8.73781 -0.19482,8.63409 4.049424,1.24599 10.045671,2.88114 15.029574,1.94665 3.415996,-0.64049 8.086786,-3.03293 10.325468,-5.27977 z" />
    </g>
  </g>
</svg>
